# xmcd CD database file
#
# Track frame offsets:
#	150
#	14502
#	28295
#	44777
#	58721
#	70703
#	86731
#	105036
#	118255
#	132425
#	147027
#	162579
#	176806
#	204750
#
# Disc length: 3241 seconds
#
# Revision: 0
# Processed by: cddbd v1.5.1PL2 Copyright (c) Steve Scherf et al.
# Submitted via: CDex 1.51
#
DISCID=ca0ca70e
DTITLE=Steinar Engelbrektson band - Mirakel
DYEAR=2006
DGENRE=Country
TTITLE0=La meg få vere din ven
TTITLE1=Ein beire mann
TTITLE2=Ei gudinne
TTITLE3=God nok for deg
TTITLE4=Eplebonden
TTITLE5=Vil du danse med meg
TTITLE6=Siste dans
TTITLE7=Eit mirakel
TTITLE8=På eit teppe vi tok med
TTITLE9=Nachspiel
TTITLE10=Ein sjangse te
TTITLE11=No e det slutt
TTITLE12=Det var du
TTITLE13=Video
EXTD=YEAR: 2006
EXTT0=
EXTT1=
EXTT2=
EXTT3=
EXTT4=
EXTT5=
EXTT6=
EXTT7=
EXTT8=
EXTT9=
EXTT10=
EXTT11=
EXTT12=
EXTT13=
PLAYORDER=
